HIERARCHY
ROOT Hips
{
	OFFSET 0.000000 0.000000 0.000000
	CHANNELS 6 Xposition Yposition Zposition Xrotation Yrotation Zrotation
	JOINT LeftUpLeg_virtual
	{
		OFFSET 0.000000 0.000000 0.000000
		CHANNELS 3 Xrotation Yrotation Zrotation
		JOINT LeftUpLeg
		{
			OFFSET 13.026900 -6.336304 -1.092800
			CHANNELS 3 Xrotation Yrotation Zrotation
			JOINT LeftLeg
			{
				OFFSET 0.524474 -46.096886 9.782700
				CHANNELS 3 Xrotation Yrotation Zrotation
				JOINT LeftFoot
				{
					OFFSET -0.524474 -53.427422 -12.948200
					CHANNELS 3 Xrotation Yrotation Zrotation
					JOINT LeftToeBase
					{
						OFFSET 0.192200 -14.009700 16.364100
						CHANNELS 3 Xrotation Yrotation Zrotation
						JOINT LeftToe_End
						{
							OFFSET -1.784700 -0.561700 9.474800
							CHANNELS 3 Xrotation Yrotation Zrotation
							End Site
							{
								OFFSET 0 0 0
							}
						}
					}
				}
			}
		}
	}
	JOINT RightUpLeg_virtual
	{
		OFFSET 0.000000 0.000000 0.000000
		CHANNELS 3 Xrotation Yrotation Zrotation
		JOINT RightUpLeg
		{
			OFFSET -12.883000 -6.336304 -1.092800
			CHANNELS 3 Xrotation Yrotation Zrotation
			JOINT RightLeg
			{
				OFFSET -0.524587 -46.096825 9.782800
				CHANNELS 3 Xrotation Yrotation Zrotation
				JOINT RightFoot
				{
					OFFSET 0.524587 -53.427383 -12.948300
					CHANNELS 3 Xrotation Yrotation Zrotation
					JOINT RightToeBase
					{
						OFFSET -0.192200 -14.009700 16.364100
						CHANNELS 3 Xrotation Yrotation Zrotation
						JOINT RightToe_End
						{
							OFFSET 1.784700 -0.561700 9.474800
							CHANNELS 3 Xrotation Yrotation Zrotation
							End Site
							{
								OFFSET 0 0 0
							}
						}
					}
				}
			}
		}
	}
	JOINT Spine_virtual
	{
		OFFSET 0.000000 0.000000 0.000000
		CHANNELS 3 Xrotation Yrotation Zrotation
		JOINT Spine
		{
			OFFSET 0.072000 7.257294 -0.789700
			CHANNELS 3 Xrotation Yrotation Zrotation
			JOINT Spine1
			{
				OFFSET 0.000000 12.508769 -0.658067
				CHANNELS 3 Xrotation Yrotation Zrotation
				JOINT Spine1_split
				{
					OFFSET 0.000000 12.508769 -0.658067
					CHANNELS 3 Xrotation Yrotation Zrotation
					JOINT Spine2
					{
						OFFSET 0.000000 12.508769 -0.658067
						CHANNELS 3 Xrotation Yrotation Zrotation
						JOINT Neck_virtual
						{
							OFFSET 0.000000 0.000000 0.000000
							CHANNELS 3 Xrotation Yrotation Zrotation
							JOINT Neck
							{
								OFFSET 0.000000 14.033295 7.520400
								CHANNELS 3 Xrotation Yrotation Zrotation
								JOINT Head
								{
									OFFSET 0.000000 8.198502 5.703100
									CHANNELS 3 Xrotation Yrotation Zrotation
									JOINT HeadTop_End
									{
										OFFSET 0.000000 17.760803 13.332701
										CHANNELS 3 Xrotation Yrotation Zrotation
										End Site
										{
											OFFSET 0 0 0
										}
									}
								}
							}
						}
						JOINT LeftShoulder_virtual
						{
							OFFSET 0.000000 0.000000 0.000000
							CHANNELS 3 Xrotation Yrotation Zrotation
							JOINT LeftShoulder
							{
								OFFSET 6.292450 5.785301 -0.669000
								CHANNELS 3 Xrotation Yrotation Zrotation
								JOINT LeftShoulder_split
								{
									OFFSET 6.292450 5.785301 -0.669000
									CHANNELS 3 Xrotation Yrotation Zrotation
									JOINT LeftArm
									{
										OFFSET 13.907140 -6.093903 1.965100
										CHANNELS 3 Xrotation Yrotation Zrotation
										JOINT LeftForeArm
										{
											OFFSET 34.140198 0.000000 0.000000
											CHANNELS 3 Xrotation Yrotation Zrotation
											JOINT LeftHand
											{
												OFFSET 40.960209 0.000000 0.000000
												CHANNELS 3 Xrotation Yrotation Zrotation
												End Site
												{
													OFFSET 0 0 0
												}
											}
										}
									}
								}
							}
						}
						JOINT RightShoulder_virtual
						{
							OFFSET 0.000000 0.000000 0.000000
							CHANNELS 3 Xrotation Yrotation Zrotation
							JOINT RightShoulder
							{
								OFFSET -6.292450 5.785301 -0.669000
								CHANNELS 3 Xrotation Yrotation Zrotation
								JOINT RightShoulder_split
								{
									OFFSET -6.292450 5.785301 -0.669000
									CHANNELS 3 Xrotation Yrotation Zrotation
									JOINT RightArm
									{
										OFFSET -13.907140 -6.093903 1.965100
										CHANNELS 3 Xrotation Yrotation Zrotation
										JOINT RightForeArm
										{
											OFFSET -34.140198 0.000000 0.000000
											CHANNELS 3 Xrotation Yrotation Zrotation
											JOINT RightHand
											{
												OFFSET -40.960209 0.000000 0.000000
												CHANNELS 3 Xrotation Yrotation Zrotation
												End Site
												{
													OFFSET 0 0 0
												}
											}
										}
									}
								}
							}
						}
					}
				}
			}
		}
	}
}
MOTION
Frames: 7
Frame Time: 0.03333333
-10.621433 92.555298 -12.088993 0.000000 0.000000 0.000000 1.464893 16.245366 6.385006 -55.942603 7.859820 24.573182 54.347337 -16.603020 6.127140 6.014421 -3.973664 -17.426715 -1.071869 -3.422297 1.873674 0.000000 0.000000 0.000000 -0.095669 20.727403 6.717536 -28.487770 -4.148846 -22.073740 52.654601 16.185926 -8.963173 -24.916604 -8.138626 31.711701 7.885468 1.463656 -7.834848 0.000000 0.000000 0.000000 0.565151 18.046685 5.270109 -4.627133 4.632168 1.670967 14.610294 3.412458 -3.674362 0.225894 -1.395738 0.237123 0.000000 0.000000 0.000000 15.926398 4.099950 -0.273569 -27.066472 23.059340 17.700814 -6.931450 34.946922 -0.657499 0.000000 0.000000 0.000000 8.791241 1.516367 -1.900475 -4.719483 -23.032146 10.707118 -1.638822 -0.766589 -2.223256 -0.993385 38.111899 -75.467655 13.221410 -80.190232 18.359168 0.000000 0.000000 0.000000 8.322317 -0.101283 0.130597 1.757107 0.590281 -9.058594 -30.838926 4.060831 -11.442743 -21.254367 -2.231881 59.975249 2.023938 19.065636 2.513852 0.000000 0.000000 0.000000 
-10.853630 92.203262 -12.354542 0.000000 0.000000 0.000000 1.421059 16.516169 6.383028 -55.375465 7.489225 24.425914 54.697859 -16.577346 6.131536 5.914433 -3.720434 -16.799723 -1.440531 -3.386989 1.848416 0.000000 0.000000 0.000000 -0.256421 20.783207 6.700985 -29.246959 -3.905647 -22.354012 53.029278 16.250671 -9.000376 -24.760317 -7.868991 32.246095 7.803458 1.564620 -7.938851 0.000000 0.000000 0.000000 0.430477 17.485387 5.568431 -4.231805 4.499457 1.426308 14.703160 3.539801 -3.610114 0.174441 -1.317856 0.198963 0.000000 0.000000 0.000000 15.801188 4.253022 -0.237150 -27.196306 23.001400 17.601428 -7.438702 34.690019 -0.637020 0.000000 0.000000 0.000000 8.880961 1.690208 -1.901754 -4.681468 -22.639857 10.442143 -2.733477 -0.063622 -1.962786 -0.210997 38.442907 -75.090820 12.999887 -79.457845 17.999253 0.000000 0.000000 0.000000 8.190081 0.039654 0.068830 1.972651 2.362571 -8.694968 -31.018071 4.799217 -11.462523 -20.588260 -2.607099 58.865487 2.405433 14.770088 2.967039 0.000000 0.000000 0.000000 
-11.153571 91.818001 -12.326199 0.000000 0.000000 0.000000 1.281654 16.215047 6.420189 -54.381652 7.013555 24.366881 54.352514 -15.942379 5.815673 5.906169 -2.569529 -15.671917 -2.086735 -3.241817 1.616924 0.000000 0.000000 0.000000 -0.385585 20.263172 6.660754 -29.987126 -3.568563 -22.617608 53.448027 16.157622 -9.024109 -24.494018 -7.462588 32.839912 8.259504 1.716154 -7.963896 0.000000 0.000000 0.000000 0.092230 16.831797 5.796369 -3.676940 4.229127 0.972625 14.632755 3.673916 -3.581312 0.112683 -1.211147 0.173314 0.000000 0.000000 0.000000 15.364873 4.414710 -0.201004 -26.264246 23.555282 16.967221 -7.990267 34.892821 -0.601160 0.000000 0.000000 0.000000 8.787742 1.835776 -1.927243 -4.637855 -21.991910 10.036740 -3.782731 0.349893 -1.257548 0.977188 38.915126 -74.720822 14.052549 -79.287308 18.885085 0.000000 0.000000 0.000000 7.833162 0.223819 0.017271 2.184913 4.504438 -8.015239 -30.684662 5.073479 -11.568314 -19.086335 -2.011412 57.056508 3.562884 9.746548 3.546071 0.000000 0.000000 0.000000 
-11.438364 91.590248 -12.124996 0.000000 0.000000 0.000000 1.049079 15.315299 6.497708 -53.299364 6.598284 24.423385 53.130935 -14.999188 5.310420 6.355820 -1.100322 -14.558063 -2.815908 -3.006160 1.254151 0.000000 0.000000 0.000000 -0.518518 19.347822 6.674404 -30.469037 -3.279415 -22.802363 53.836408 15.793074 -9.057498 -24.453978 -7.204591 33.292289 9.328497 1.894768 -7.900257 0.000000 0.000000 0.000000 -0.217420 16.441601 5.924811 -3.031695 3.840904 0.393783 14.392243 3.795664 -3.627542 0.088619 -1.130878 0.193749 0.000000 0.000000 0.000000 14.752348 4.558424 -0.228462 -24.482629 24.518395 16.098291 -8.646295 35.482177 -0.370097 0.000000 0.000000 0.000000 8.550560 1.941650 -2.015900 -4.587950 -21.096789 9.636109 -4.646459 -0.072294 -0.478969 2.057552 39.175110 -74.353993 16.547038 -79.810296 21.130672 0.000000 0.000000 0.000000 7.328299 0.392230 -0.046744 2.364922 6.557442 -6.998115 -30.254313 4.200468 -11.474182 -16.673955 -0.415710 54.906036 5.181495 5.451952 4.302334 0.000000 0.000000 0.000000 
-11.553169 91.795967 -11.882252 0.000000 0.000000 0.000000 0.775008 14.377476 6.580625 -52.439652 6.316059 24.468241 51.223728 -14.271398 4.886631 7.662014 -0.207299 -14.187000 -3.323239 -2.749667 0.905031 0.000000 0.000000 0.000000 -0.712860 18.246806 6.768858 -30.397006 -3.136612 -22.832001 54.010042 15.140513 -9.106936 -24.588819 -7.295334 33.665415 10.303189 2.118617 -7.758306 0.000000 0.000000 0.000000 -0.510553 16.386963 5.977646 -2.368653 3.331100 -0.159137 14.019795 3.909328 -3.754861 0.089999 -1.126795 0.221338 0.000000 0.000000 0.000000 14.093100 4.670855 -0.391908 -22.227876 25.576936 15.342263 -9.524556 36.236578 0.228875 0.000000 0.000000 0.000000 8.237815 2.024223 -2.191947 -4.513114 -20.039966 9.383453 -5.165229 -1.028805 -0.097625 2.532567 39.000264 -73.960601 19.926180 -80.757903 24.207015 0.000000 0.000000 0.000000 6.801222 0.534182 -0.136483 2.530805 8.120905 -5.732265 -30.245321 2.492086 -11.045775 -13.156562 2.178873 52.781530 6.919560 2.684673 5.121907 0.000000 0.000000 0.000000 
-11.463577 92.476044 -11.803539 0.000000 0.000000 0.000000 0.558760 14.010583 6.659511 -52.290292 6.306385 24.302370 48.910189 -13.963459 4.661716 9.673314 -0.500374 -14.620792 -3.155023 -2.558571 0.751105 0.000000 0.000000 0.000000 -0.748985 17.464159 6.912498 -29.580972 -3.151957 -22.659545 53.851404 14.222688 -9.130958 -24.643594 -7.678530 34.123335 10.556580 2.413983 -7.568891 0.000000 0.000000 0.000000 -0.626081 16.995582 6.015440 -1.733026 2.712989 -0.540124 13.612235 4.011382 -3.922485 0.106143 -1.183659 0.220447 0.000000 0.000000 0.000000 13.510971 4.788034 -0.678735 -19.966648 26.370908 15.022301 -10.645948 36.757647 1.166385 0.000000 0.000000 0.000000 7.947345 2.091351 -2.420990 -4.395265 -18.896968 9.394726 -5.513500 -1.584512 -0.249905 2.022169 38.318686 -73.442558 22.633131 -81.639892 26.565915 0.000000 0.000000 0.000000 6.353922 0.661337 -0.263832 2.706861 8.886058 -4.283986 -30.219981 0.809110 -10.740127 -8.470933 5.727331 50.664475 8.501455 1.472506 5.912182 0.000000 0.000000 0.000000 
-11.268226 93.504234 -12.164036 0.000000 0.000000 0.000000 0.449741 14.693497 6.706050 -52.774307 6.493760 23.853483 46.520938 -14.361200 4.661460 11.705322 -1.958168 -15.724695 -2.465360 -2.497737 0.999375 0.000000 0.000000 0.000000 -0.417274 17.568090 7.006572 -28.005357 -3.394556 -22.205737 53.167876 13.058976 -9.035632 -24.572546 -8.332405 34.608186 10.201819 2.773149 -7.272783 0.000000 0.000000 0.000000 -0.429044 18.294607 5.995613 -1.125081 1.960323 -0.743868 13.240312 4.115400 -4.101757 0.120719 -1.306618 0.214252 0.000000 0.000000 0.000000 13.097672 4.940633 -1.014945 -18.250839 26.673328 15.370525 -11.999093 36.898779 2.319820 0.000000 0.000000 0.000000 7.690954 2.186063 -2.656507 -4.207166 -17.774915 9.721562 -5.364758 -1.367124 -0.392014 0.545607 37.228714 -72.763603 22.862901 -82.125675 26.407866 0.000000 0.000000 0.000000 6.078078 0.796443 -0.371860 2.945909 8.828000 -2.867967 -30.482451 -0.743392 -10.725253 -2.649051 9.992650 48.278837 9.698496 1.267542 6.559357 0.000000 0.000000 0.000000 
